<svg id="visual" viewBox="0 0 900 600" width="900" height="600" xmlns="http://www.w3.org/2000/svg" xmlns:xlink="http://www.w3.org/1999/xlink" version="1.1"><rect x="0" y="0" width="900" height="600" fill="#002233"></rect><path d="M535 600L492 592.8C449 585.7 363 571.3 365.3 557C367.7 542.7 458.3 528.3 516.7 514C575 499.7 601 485.3 572 471.2C543 457 459 443 437.3 428.8C415.7 414.7 456.3 400.3 486 386C515.7 371.7 534.3 357.3 526.3 343C518.3 328.7 483.7 314.3 444 300C404.3 285.7 359.7 271.3 344 257C328.3 242.7 341.7 228.3 367.8 214C394 199.7 433 185.3 453.8 171.2C474.7 157 477.3 143 487.2 128.8C497 114.7 514 100.3 481.2 86C448.3 71.7 365.7 57.3 353.3 43C341 28.7 399 14.3 428 7.2L457 0L900 0L900 7.2C900 14.3 900 28.7 900 43C900 57.3 900 71.7 900 86C900 100.3 900 114.7 900 128.8C900 143 900 157 900 171.2C900 185.3 900 199.7 900 214C900 228.3 900 242.7 900 257C900 271.3 900 285.7 900 300C900 314.3 900 328.7 900 343C900 357.3 900 371.7 900 386C900 400.3 900 414.7 900 428.8C900 443 900 457 900 471.2C900 485.3 900 499.7 900 514C900 528.3 900 542.7 900 557C900 571.3 900 585.7 900 592.8L900 600Z" fill="#0066FF" stroke-linecap="round" stroke-linejoin="miter"></path></svg>